<svg width="333" height="105" viewBox="0 0 333 105" fill="none" xmlns="http://www.w3.org/2000/svg">
<foreignObject x="64.5284" y="0.530344" width="35.4202" height="37.3382"><div xmlns="http://www.w3.org/1999/xhtml" style="backdrop-filter:blur(0.7px);clip-path:url(#bgblur_0_794_1060_clip_path);height:100%;width:100%"></div></foreignObject><g filter="url(#filter0_dn_794_1060)" data-figma-bg-blur-radius="1.39153">
<path d="M81.8906 35.7812L96.5049 21.167C98.3139 19.358 98.3139 16.4249 96.5049 14.6159L85.1662 3.27721C83.3571 1.46817 80.4241 1.46817 78.6151 3.27721L67.2764 14.6159C65.4673 16.4249 65.4673 19.358 67.2764 21.167L81.8906 35.7812Z" fill="#EC4423" fill-opacity="0.8" shape-rendering="crispEdges"/>
</g>
<foreignObject x="-1.68345" y="39.047" width="69.736" height="67.027"><div xmlns="http://www.w3.org/1999/xhtml" style="backdrop-filter:blur(0.84px);clip-path:url(#bgblur_1_794_1060_clip_path);height:100%;width:100%"></div></foreignObject><path data-figma-bg-blur-radius="1.68345" d="M2.52517 104.391C1.13056 104.391 0 103.26 0 101.866V44.6456C0 43.251 1.13056 42.1204 2.52517 42.1204H19.1135C19.5233 42.1204 19.927 42.2202 20.2896 42.411L23.7065 44.2094C24.5169 44.6359 25.4891 44.5797 26.2901 44.1355C30.384 41.8655 35.6129 40.7305 41.9769 40.7305C46.6101 40.7305 50.6873 41.2401 54.2085 42.2594C57.7298 43.1861 60.556 44.2054 62.6873 45.3173C63.7664 45.8569 64.6492 46.3201 65.3356 46.7069C66.2778 47.2379 66.5961 48.3592 66.2078 49.3686L61.0667 62.7356C60.4775 64.2675 58.7716 66.6624 57.7428 67.9413C56.8896 69.0019 55.8505 69.9326 54.6255 69.4076C52.1236 68.2956 49.1583 67.2763 45.7298 66.3497C42.3012 65.3303 38.6873 64.8207 34.8881 64.8207H33.3591C30.7645 64.8207 28.7722 65.284 27.3823 66.2107C25.9923 67.0446 25.2973 68.9442 25.2973 71.9095V101.866C25.2973 103.26 24.1668 104.391 22.7721 104.391H2.52517Z" fill="#EC4423" fill-opacity="0.8"/>
<foreignObject x="67.6994" y="40.4376" width="28.6638" height="65.6364"><div xmlns="http://www.w3.org/1999/xhtml" style="backdrop-filter:blur(0.84px);clip-path:url(#bgblur_2_794_1060_clip_path);height:100%;width:100%"></div></foreignObject><path data-figma-bg-blur-radius="1.68345" d="M71.908 104.391C70.5134 104.391 69.3828 103.261 69.3828 101.866V44.6463C69.3828 43.2517 70.5134 42.1211 71.908 42.1211H92.155C93.5496 42.1211 94.6801 43.2517 94.6801 44.6463V101.866C94.6801 103.261 93.5496 104.391 92.155 104.391H71.908Z" fill="#EC4423" fill-opacity="0.8"/>
<foreignObject x="97.0334" y="40.4376" width="91.8845" height="65.6364"><div xmlns="http://www.w3.org/1999/xhtml" style="backdrop-filter:blur(0.84px);clip-path:url(#bgblur_3_794_1060_clip_path);height:100%;width:100%"></div></foreignObject><path data-figma-bg-blur-radius="1.68345" d="M128.962 104.391C127.994 104.391 127.111 103.838 126.689 102.967L98.9731 45.7471C98.1609 44.0701 99.3824 42.1211 101.246 42.1211H123.426C124.468 42.1211 125.403 42.7615 125.78 43.7333L138.36 76.1752L141.685 83.5252C141.86 83.9108 142.244 84.1585 142.667 84.1585C143.09 84.1585 143.474 83.9109 143.648 83.5256L146.977 76.1752L159.693 43.725C160.072 42.7576 161.005 42.1211 162.044 42.1211H184.708C186.363 42.1211 187.571 43.6862 187.151 45.2869L185.828 50.332C185.781 50.51 185.715 50.6824 185.631 50.8461L158.802 103.021C158.369 103.862 157.502 104.391 156.556 104.391H128.962Z" fill="#EC4423" fill-opacity="0.8"/>
<foreignObject x="188.822" y="40.4376" width="82.9392" height="65.6364"><div xmlns="http://www.w3.org/1999/xhtml" style="backdrop-filter:blur(0.84px);clip-path:url(#bgblur_4_794_1060_clip_path);height:100%;width:100%"></div></foreignObject><path data-figma-bg-blur-radius="1.68345" d="M213.162 104.391C207.046 104.391 202.321 103.511 198.985 101.75C195.741 99.9899 193.517 97.5806 192.313 94.5227C191.108 91.3721 190.506 87.7582 190.506 83.681V62.6925C190.506 58.986 191.108 55.6037 192.313 52.5458C193.61 49.3952 195.88 46.8933 199.124 45.04C202.367 43.0941 207.046 42.1211 213.162 42.1211H241.934C249.162 42.1211 254.676 43.0014 258.475 44.762C262.367 46.43 265.008 48.8392 266.398 51.9898C267.88 55.0477 268.622 58.6153 268.622 62.6925V71.5883V77.9589C268.622 79.3535 267.491 80.484 266.097 80.484H244.297C235.958 80.484 229.61 80.2987 225.255 79.9281C222.359 79.6763 220.041 79.4886 218.3 79.3651C217.17 79.2849 216.22 80.1847 216.22 81.318C216.128 85.0246 218.351 86.8779 222.892 86.8779H227.201C234.614 86.8779 241.471 86.7389 247.772 86.4609C253.097 86.1477 257.263 85.8676 260.272 85.6205C261.217 85.5429 262.13 85.9924 262.636 86.7942L269.761 98.0748C270.015 98.4784 270.189 98.9651 269.993 99.4004C269.692 100.07 268.957 100.715 267.788 101.333C266.212 102.167 263.433 102.909 259.448 103.557C255.556 104.113 249.996 104.391 242.768 104.391H213.162ZM216.22 65.1945C216.22 66.2692 217.091 67.1404 218.166 67.1404H240.961C242.036 67.1404 242.907 66.2692 242.907 65.1945C242.907 63.3412 242.722 62.0439 242.351 61.3026C242.073 60.5613 241.1 60.0979 239.433 59.9126C237.765 59.7273 234.938 59.6346 230.954 59.6346H222.892C218.444 59.6346 216.22 61.4879 216.22 65.1945Z" fill="#EC4423" fill-opacity="0.8"/>
<path d="M302.421 104.391C295.378 104.391 290.56 102.908 287.965 99.943C285.371 96.9778 284.073 92.5299 284.073 86.5994L286.566 62.4183C286.72 60.9291 285.552 59.6341 284.054 59.6341H275.201C273.806 59.6341 272.676 58.5036 272.676 57.109V44.6458C272.676 43.2512 273.806 42.1206 275.201 42.1206H278.514C280.089 42.1206 282.325 42.3453 283.251 41.7893C284.271 41.1407 284.919 40.0287 285.197 38.4534L286.61 25.3329C286.749 24.0503 287.831 23.0781 289.121 23.0781H307.124C308.518 23.0781 309.649 24.2087 309.649 25.6033V39.5954C309.649 40.9901 310.779 42.1206 312.174 42.1206H330.336C331.731 42.1206 332.861 43.2512 332.861 44.6458V57.109C332.861 58.5036 331.731 59.6341 330.336 59.6341H312.174C310.779 59.6341 309.649 60.7647 309.649 62.1593V81.1785C309.649 83.4951 310.205 85.0241 311.317 85.7654C312.125 86.304 313.226 86.6469 314.621 86.7942C315.743 86.9128 316.869 86.7086 317.948 86.3766L329.732 82.7494C331.356 82.2495 333 83.4637 333 85.1628V100.811C333 102.068 332.076 103.133 330.829 103.281C329.06 103.49 326.819 103.721 324.104 103.974C320.12 104.252 315.765 104.391 311.039 104.391H302.421Z" fill="#EC4423" fill-opacity="0.8"/>
<defs>
<filter id="filter0_dn_794_1060" x="64.5284" y="0.530344" width="35.4202" height="37.3382" filterUnits="userSpaceOnUse" color-interpolation-filters="sRGB">
<feFlood flood-opacity="0" result="BackgroundImageFix"/>
<feColorMatrix in="SourceAlpha" type="matrix" values="0 0 0 0 0 0 0 0 0 0 0 0 0 0 0 0 0 0 127 0" result="hardAlpha"/>
<feOffset dx="0.695766" dy="0.695766"/>
<feGaussianBlur stdDeviation="0.695766"/>
<feComposite in2="hardAlpha" operator="out"/>
<feColorMatrix type="matrix" values="0 0 0 0 0 0 0 0 0 0 0 0 0 0 0 0 0 0 0.05 0"/>
<feBlend mode="normal" in2="BackgroundImageFix" result="effect1_dropShadow_794_1060"/>
<feBlend mode="normal" in="SourceGraphic" in2="BackgroundImageFix" result="shape"/>
<feTurbulence type="fractalNoise" baseFrequency="11.583881378173828 11.583881378173828" stitchTiles="stitch" numOctaves="3" result="noise" seed="6888" />
<feColorMatrix in="noise" type="luminanceToAlpha" result="alphaNoise" />
<feComponentTransfer in="alphaNoise" result="coloredNoise1">
<feFuncA type="discrete" tableValues="1 1 1 1 1 1 1 1 1 1 1 1 1 1 1 1 1 1 1 1 1 1 1 1 1 1 1 1 1 1 1 1 1 1 1 1 1 1 1 1 1 1 1 1 1 1 1 1 1 1 1 0 0 0 0 0 0 0 0 0 0 0 0 0 0 0 0 0 0 0 0 0 0 0 0 0 0 0 0 0 0 0 0 0 0 0 0 0 0 0 0 0 0 0 0 0 0 0 0 0 "/>
</feComponentTransfer>
<feComposite operator="in" in2="shape" in="coloredNoise1" result="noise1Clipped" />
<feComponentTransfer in="alphaNoise" result="coloredNoise2">
<feFuncA type="discrete" tableValues="0 0 0 0 0 0 0 0 0 0 0 0 0 0 0 0 0 0 0 0 0 0 0 0 0 0 0 0 0 0 0 0 0 0 0 0 0 0 0 0 0 0 0 0 0 0 0 0 0 1 1 1 1 1 1 1 1 1 1 1 1 1 1 1 1 1 1 1 1 1 1 1 1 1 1 1 1 1 1 1 1 1 1 1 1 1 1 1 1 1 1 1 1 1 1 1 1 1 1 1 "/>
</feComponentTransfer>
<feComposite operator="in" in2="shape" in="coloredNoise2" result="noise2Clipped" />
<feFlood flood-color="rgba(0, 0, 0, 0.05)" result="color1Flood" />
<feComposite operator="in" in2="noise1Clipped" in="color1Flood" result="color1" />
<feFlood flood-color="rgba(255, 255, 255, 0.25)" result="color2Flood" />
<feComposite operator="in" in2="noise2Clipped" in="color2Flood" result="color2" />
<feMerge result="effect2_noise_794_1060">
<feMergeNode in="shape" />
<feMergeNode in="color1" />
<feMergeNode in="color2" />
</feMerge>
<feBlend mode="normal" in="effect2_noise_794_1060" in2="effect1_dropShadow_794_1060" result="effect2_noise_794_1060"/>
</filter>
<clipPath id="bgblur_0_794_1060_clip_path" transform="translate(-64.5284 -0.530344)"><path d="M81.8906 35.7812L96.5049 21.167C98.3139 19.358 98.3139 16.4249 96.5049 14.6159L85.1662 3.27721C83.3571 1.46817 80.4241 1.46817 78.6151 3.27721L67.2764 14.6159C65.4673 16.4249 65.4673 19.358 67.2764 21.167L81.8906 35.7812Z"/>
</clipPath><clipPath id="bgblur_1_794_1060_clip_path" transform="translate(1.68345 -39.047)"><path d="M2.52517 104.391C1.13056 104.391 0 103.26 0 101.866V44.6456C0 43.251 1.13056 42.1204 2.52517 42.1204H19.1135C19.5233 42.1204 19.927 42.2202 20.2896 42.411L23.7065 44.2094C24.5169 44.6359 25.4891 44.5797 26.2901 44.1355C30.384 41.8655 35.6129 40.7305 41.9769 40.7305C46.6101 40.7305 50.6873 41.2401 54.2085 42.2594C57.7298 43.1861 60.556 44.2054 62.6873 45.3173C63.7664 45.8569 64.6492 46.3201 65.3356 46.7069C66.2778 47.2379 66.5961 48.3592 66.2078 49.3686L61.0667 62.7356C60.4775 64.2675 58.7716 66.6624 57.7428 67.9413C56.8896 69.0019 55.8505 69.9326 54.6255 69.4076C52.1236 68.2956 49.1583 67.2763 45.7298 66.3497C42.3012 65.3303 38.6873 64.8207 34.8881 64.8207H33.3591C30.7645 64.8207 28.7722 65.284 27.3823 66.2107C25.9923 67.0446 25.2973 68.9442 25.2973 71.9095V101.866C25.2973 103.26 24.1668 104.391 22.7721 104.391H2.52517Z"/>
</clipPath><clipPath id="bgblur_2_794_1060_clip_path" transform="translate(-67.6994 -40.4376)"><path d="M71.908 104.391C70.5134 104.391 69.3828 103.261 69.3828 101.866V44.6463C69.3828 43.2517 70.5134 42.1211 71.908 42.1211H92.155C93.5496 42.1211 94.6801 43.2517 94.6801 44.6463V101.866C94.6801 103.261 93.5496 104.391 92.155 104.391H71.908Z"/>
</clipPath><clipPath id="bgblur_3_794_1060_clip_path" transform="translate(-97.0334 -40.4376)"><path d="M128.962 104.391C127.994 104.391 127.111 103.838 126.689 102.967L98.9731 45.7471C98.1609 44.0701 99.3824 42.1211 101.246 42.1211H123.426C124.468 42.1211 125.403 42.7615 125.78 43.7333L138.36 76.1752L141.685 83.5252C141.86 83.9108 142.244 84.1585 142.667 84.1585C143.09 84.1585 143.474 83.9109 143.648 83.5256L146.977 76.1752L159.693 43.725C160.072 42.7576 161.005 42.1211 162.044 42.1211H184.708C186.363 42.1211 187.571 43.6862 187.151 45.2869L185.828 50.332C185.781 50.51 185.715 50.6824 185.631 50.8461L158.802 103.021C158.369 103.862 157.502 104.391 156.556 104.391H128.962Z"/>
</clipPath><clipPath id="bgblur_4_794_1060_clip_path" transform="translate(-188.822 -40.4376)"><path d="M213.162 104.391C207.046 104.391 202.321 103.511 198.985 101.75C195.741 99.9899 193.517 97.5806 192.313 94.5227C191.108 91.3721 190.506 87.7582 190.506 83.681V62.6925C190.506 58.986 191.108 55.6037 192.313 52.5458C193.61 49.3952 195.88 46.8933 199.124 45.04C202.367 43.0941 207.046 42.1211 213.162 42.1211H241.934C249.162 42.1211 254.676 43.0014 258.475 44.762C262.367 46.43 265.008 48.8392 266.398 51.9898C267.88 55.0477 268.622 58.6153 268.622 62.6925V71.5883V77.9589C268.622 79.3535 267.491 80.484 266.097 80.484H244.297C235.958 80.484 229.61 80.2987 225.255 79.9281C222.359 79.6763 220.041 79.4886 218.3 79.3651C217.17 79.2849 216.22 80.1847 216.22 81.318C216.128 85.0246 218.351 86.8779 222.892 86.8779H227.201C234.614 86.8779 241.471 86.7389 247.772 86.4609C253.097 86.1477 257.263 85.8676 260.272 85.6205C261.217 85.5429 262.13 85.9924 262.636 86.7942L269.761 98.0748C270.015 98.4784 270.189 98.9651 269.993 99.4004C269.692 100.07 268.957 100.715 267.788 101.333C266.212 102.167 263.433 102.909 259.448 103.557C255.556 104.113 249.996 104.391 242.768 104.391H213.162ZM216.22 65.1945C216.22 66.2692 217.091 67.1404 218.166 67.1404H240.961C242.036 67.1404 242.907 66.2692 242.907 65.1945C242.907 63.3412 242.722 62.0439 242.351 61.3026C242.073 60.5613 241.1 60.0979 239.433 59.9126C237.765 59.7273 234.938 59.6346 230.954 59.6346H222.892C218.444 59.6346 216.22 61.4879 216.22 65.1945Z"/>
</clipPath></defs>
</svg>
